<svg xmlns="http://www.w3.org/2000/svg" viewBox="0 0 100 100" fill="none">
  <defs>
    <linearGradient id="civicGrad" x1="0%" y1="0%" x2="100%" y2="100%">
      <stop offset="0%" stop-color="#6366F1" />
      <stop offset="50%" stop-color="#4F46E5" />
      <stop offset="100%" stop-color="#06B6D4" />
    </linearGradient>
    <filter id="glow" x="-20%" y="-20%" width="140%" height="140%">
      <feGaussianBlur stdDeviation="4" result="blur" />
      <feComposite in="SourceGraphic" in2="blur" operator="over" />
    </filter>
  </defs>
  <rect width="100" height="100" rx="24" fill="#0B1120" />
  <rect x="2" y="2" width="96" height="96" rx="22" stroke="url(#civicGrad)" stroke-width="2" stroke-opacity="0.4" />
  <!-- AI Eye / City Beacon Shape -->
  <path d="M50 20C32 20 18 36 12 50C18 64 32 80 50 80C68 80 82 64 88 50C82 36 68 20 50 20Z" stroke="url(#civicGrad)" stroke-width="5" stroke-linecap="round" stroke-linejoin="round" fill="#111827" fill-opacity="0.8"/>
  <circle cx="50" cy="50" r="16" fill="url(#civicGrad)" filter="url(#glow)"/>
  <circle cx="50" cy="50" r="7" fill="#FFFFFF"/>
  <path d="M50 12V20M50 80V88M12 50H20M80 50H88" stroke="#06B6D4" stroke-width="3" stroke-linecap="round"/>
</svg>
